<mxfile host="app.diagrams.net" modified="2022-06-10T09:48:12.984Z" agent="5.0 (Windows NT 10.0; Win64; x64) AppleWebKit/537.36 (KHTML, like Gecko) Chrome/102.0.5005.63 Safari/537.36 Edg/102.0.1245.33" etag="aKEs7rkYeAmRXupUs4vN" version="19.0.3" type="github">
  <diagram id="DnrnMb2I-ee3ofIosJeG" name="Page-1">
    <mxGraphModel dx="1422" dy="794" grid="1" gridSize="10" guides="1" tooltips="1" connect="1" arrows="1" fold="1" page="1" pageScale="1" pageWidth="827" pageHeight="1169" math="0" shadow="0">
      <root>
        <mxCell id="0" />
        <mxCell id="1" parent="0" />
        <mxCell id="WAK5zBahrGszai_4QzEf-3" value="" style="edgeStyle=orthogonalEdgeStyle;rounded=0;orthogonalLoop=1;jettySize=auto;html=1;" parent="1" source="WAK5zBahrGszai_4QzEf-1" target="WAK5zBahrGszai_4QzEf-2" edge="1">
          <mxGeometry relative="1" as="geometry" />
        </mxCell>
        <mxCell id="WAK5zBahrGszai_4QzEf-1" value="数据存储" style="rounded=0;whiteSpace=wrap;html=1;" parent="1" vertex="1">
          <mxGeometry x="370" y="80" width="120" height="60" as="geometry" />
        </mxCell>
        <mxCell id="WX-GgaWL-I9o2pZYYqg0-3" value="" style="group" vertex="1" connectable="0" parent="1">
          <mxGeometry x="330" y="315" width="390" height="270" as="geometry" />
        </mxCell>
        <mxCell id="WAK5zBahrGszai_4QzEf-2" value="类型" style="rhombus;whiteSpace=wrap;html=1;rounded=0;" parent="WX-GgaWL-I9o2pZYYqg0-3" vertex="1">
          <mxGeometry x="60" y="30" width="80" height="80" as="geometry" />
        </mxCell>
        <mxCell id="WAK5zBahrGszai_4QzEf-4" value="注册表存储" style="whiteSpace=wrap;html=1;rounded=0;" parent="WX-GgaWL-I9o2pZYYqg0-3" vertex="1">
          <mxGeometry x="40" y="200" width="120" height="60" as="geometry" />
        </mxCell>
        <mxCell id="WAK5zBahrGszai_4QzEf-5" value="" style="edgeStyle=orthogonalEdgeStyle;rounded=0;orthogonalLoop=1;jettySize=auto;html=1;" parent="WX-GgaWL-I9o2pZYYqg0-3" source="WAK5zBahrGszai_4QzEf-2" target="WAK5zBahrGszai_4QzEf-4" edge="1">
          <mxGeometry relative="1" as="geometry" />
        </mxCell>
        <mxCell id="WAK5zBahrGszai_4QzEf-6" value="文件存储" style="whiteSpace=wrap;html=1;rounded=0;" parent="WX-GgaWL-I9o2pZYYqg0-3" vertex="1">
          <mxGeometry x="200" y="40" width="120" height="60" as="geometry" />
        </mxCell>
        <mxCell id="WAK5zBahrGszai_4QzEf-7" value="" style="edgeStyle=orthogonalEdgeStyle;rounded=0;orthogonalLoop=1;jettySize=auto;html=1;" parent="WX-GgaWL-I9o2pZYYqg0-3" source="WAK5zBahrGszai_4QzEf-2" target="WAK5zBahrGszai_4QzEf-6" edge="1">
          <mxGeometry relative="1" as="geometry" />
        </mxCell>
        <mxCell id="WX-GgaWL-I9o2pZYYqg0-2" value="文件类型" style="swimlane;startSize=20;" vertex="1" parent="WX-GgaWL-I9o2pZYYqg0-3">
          <mxGeometry width="390" height="270" as="geometry" />
        </mxCell>
      </root>
    </mxGraphModel>
  </diagram>
</mxfile>
